<?xml version="1.0" encoding="UTF-8" standalone="no"?>
<!-- Created with Inkscape (http://www.inkscape.org/) -->

<svg
   xmlns:dc="http://purl.org/dc/elements/1.1/"
   xmlns:cc="http://creativecommons.org/ns#"
   xmlns:rdf="http://www.w3.org/1999/02/22-rdf-syntax-ns#"
   xmlns:svg="http://www.w3.org/2000/svg"
   xmlns="http://www.w3.org/2000/svg"
   xmlns:sodipodi="http://sodipodi.sourceforge.net/DTD/sodipodi-0.dtd"
   xmlns:inkscape="http://www.inkscape.org/namespaces/inkscape"
   width="153.36928"
   height="39.000851"
   viewBox="0 0 40.578956 10.318975"
   version="1.1"
   id="svg8"
   inkscape:version="0.92.0 r15299"
   sodipodi:docname="essity.svg">
  <defs
     id="defs2">
    <style
       id="style10">.cls-1{fill:#f50082;}.cls-2{fill:#00005a;}</style>
  </defs>
  <sodipodi:namedview
     id="base"
     pagecolor="#ffffff"
     bordercolor="#666666"
     borderopacity="1.0"
     inkscape:pageopacity="0.0"
     inkscape:pageshadow="2"
     inkscape:zoom="5.2635279"
     inkscape:cx="76.184599"
     inkscape:cy="19.000426"
     inkscape:document-units="mm"
     inkscape:current-layer="layer1"
     showgrid="false"
     fit-margin-top="0"
     fit-margin-left="0"
     fit-margin-right="0"
     fit-margin-bottom="0"
     units="px"
     inkscape:window-width="1280"
     inkscape:window-height="744"
     inkscape:window-x="-4"
     inkscape:window-y="-4"
     inkscape:window-maximized="1" />
  <metadata
     id="metadata5">
    <rdf:RDF>
      <cc:Work
         rdf:about="">
        <dc:format>image/svg+xml</dc:format>
        <dc:type
           rdf:resource="http://purl.org/dc/dcmitype/StillImage" />
        <dc:title></dc:title>
      </cc:Work>
    </rdf:RDF>
  </metadata>
  <g
     inkscape:label="Layer 1"
     inkscape:groupmode="layer"
     id="layer1"
     transform="translate(337.65718,-290.95227)">
    <g
       id="g94"
       transform="translate(0.13229218,-0.13229284)">
      <path
         id="path16"
         d="m -331.24942,294.11409 c -0.40789,0 -0.6422,-0.15557 -0.69627,-0.46196 v -0.0104 h -0.71619 v 0.0142 c 0.0949,0.6441 0.62039,1.0131 1.42859,1.0131 0.9429,0 1.57562,-0.63556 1.57562,-1.58226 v -0.0474 c 0,-0.94859 -0.63556,-1.60597 -1.54621,-1.60597 a 1.4636833,1.4636833 0 0 0 -1.02449,0.36806 c -0.29501,0.27698 -0.44489,0.68109 -0.44489,1.20187 v 0.21817 h 2.26145 c -0.0275,0.57485 -0.32442,0.89073 -0.83761,0.89073 m -0.68963,-1.39064 c 0.037,-0.49327 0.28458,-0.74275 0.73706,-0.74275 0.41359,0 0.70291,0.27794 0.7769,0.74275 z"
         class="cls-1"
         inkscape:connector-curvature="0"
         style="fill:#f50082;stroke-width:0.09485958" />
      <path
         id="path18"
         d="m -329.53815,294.7136 a 1.4636833,1.4636833 0 0 0 -1.02448,0.36806 c -0.29502,0.27699 -0.44489,0.68109 -0.44489,1.20187 v 0.21818 h 2.25955 c -0.0275,0.57485 -0.32442,0.89073 -0.83761,0.89073 -0.4079,0 -0.6422,-0.15557 -0.69627,-0.46197 v -0.0104 h -0.71619 v 0.0142 c 0.1015,0.64504 0.62228,1.01784 1.43048,1.01784 0.94291,0 1.57562,-0.63556 1.57562,-1.58226 v -0.0474 c 0,-0.94859 -0.63556,-1.60597 -1.54621,-1.60597 m -0.73611,1.2844 c 0.037,-0.49327 0.28458,-0.74275 0.73611,-0.74275 0.41359,0 0.70291,0.27794 0.7769,0.74275 z"
         class="cls-1"
         inkscape:connector-curvature="0"
         style="fill:#f50082;stroke-width:0.09485958" />
      <path
         id="path20"
         d="m -331.20199,298.03559 a 1.4636833,1.4636833 0 0 0 -1.02448,0.36805 c -0.29501,0.27699 -0.44489,0.68109 -0.44489,1.20187 v 0.21818 h 2.25955 c -0.0275,0.57485 -0.32442,0.89073 -0.83761,0.89073 -0.40789,0 -0.6422,-0.15557 -0.69627,-0.46197 v -0.0104 h -0.71619 v 0.0142 c 0.0949,0.6441 0.62039,1.0131 1.42859,1.0131 0.9429,0 1.57562,-0.63556 1.57562,-1.58226 v -0.0474 c 0,-0.94859 -0.63556,-1.60597 -1.54621,-1.60597 m -0.73517,1.28819 c 0.037,-0.49327 0.28458,-0.7437 0.73706,-0.7437 0.41359,0 0.70291,0.27794 0.7769,0.7437 z"
         class="cls-1"
         inkscape:connector-curvature="0"
         style="fill:#f50082;stroke-width:0.09485958" />
      <path
         id="path22"
         d="m -334.41868,294.66902 c 0.80821,0 1.32804,-0.36995 1.42859,-1.0131 v -0.0142 h -0.7124 v 0.0104 c -0.0541,0.30639 -0.28457,0.46196 -0.69626,0.46196 -0.5132,0 -0.81011,-0.31588 -0.83761,-0.89073 h 2.2586 v -0.21818 c 0,-0.52078 -0.14988,-0.92488 -0.44489,-1.20187 a 1.4636833,1.4636833 0 0 0 -1.02448,-0.36805 c -0.91066,0 -1.54621,0.66401 -1.54621,1.60597 v 0.0474 c 0,0.9486 0.63366,1.58226 1.57656,1.58226 m -0.8063,-1.94842 c 0.0721,-0.46671 0.36141,-0.74654 0.775,-0.74654 0.45248,0 0.70006,0.25043 0.73706,0.74275 z"
         class="cls-2"
         inkscape:connector-curvature="0"
         style="fill:#00005a;stroke-width:0.09485958" />
      <path
         id="path24"
         d="m -331.31392,296.28448 c 0,-0.52078 -0.14988,-0.92488 -0.44489,-1.20187 a 1.4636833,1.4636833 0 0 0 -1.02449,-0.36806 c -0.91065,0 -1.54621,0.66402 -1.54621,1.60598 v 0.0474 c 0,0.94859 0.63366,1.58225 1.57657,1.58225 0.8082,0 1.32803,-0.36995 1.42858,-1.0131 v -0.0142 h -0.71429 v 0.0104 c -0.0541,0.30639 -0.28458,0.46196 -0.69627,0.46196 -0.51319,0 -0.8101,-0.31588 -0.83761,-0.89073 h 2.25861 z m -2.24722,-0.28458 c 0.074,-0.46576 0.36331,-0.74275 0.7769,-0.74275 0.45248,0 0.70006,0.25043 0.73611,0.74275 z"
         class="cls-2"
         inkscape:connector-curvature="0"
         style="fill:#00005a;stroke-width:0.09485958" />
      <path
         id="path26"
         d="m -334.44808,298.03559 c -0.91065,0 -1.54621,0.66401 -1.54621,1.60597 v 0.0474 c 0,0.94859 0.63366,1.58226 1.57656,1.58226 0.80821,0 1.32804,-0.36996 1.42859,-1.0131 v -0.0142 h -0.71335 v 0.0104 c -0.0541,0.3064 -0.28457,0.46197 -0.69626,0.46197 -0.5132,0 -0.81011,-0.31588 -0.83761,-0.89073 h 2.2586 v -0.21818 c 0,-0.52078 -0.14988,-0.92488 -0.44489,-1.20187 a 1.4636833,1.4636833 0 0 0 -1.02448,-0.36806 m -0.77785,1.2844 c 0.074,-0.46576 0.36331,-0.7437 0.7769,-0.7437 0.45248,0 0.70006,0.25043 0.73706,0.7437 z"
         class="cls-2"
         inkscape:connector-curvature="0"
         style="fill:#00005a;stroke-width:0.09485958" />
      <path
         id="path28"
         d="m -334.65393,296.93522 v -0.0142 h -0.71239 v 0.0104 c -0.0541,0.3064 -0.28458,0.46197 -0.69627,0.46197 -0.51319,0 -0.8101,-0.31589 -0.83761,-0.89073 h 2.2586 v -0.21818 c 0,-0.52078 -0.14987,-0.92488 -0.44489,-1.20187 a 1.4636833,1.4636833 0 0 0 -1.02448,-0.36806 c -0.91065,0 -1.54621,0.66402 -1.54621,1.60598 v 0.0474 c -9.5e-4,0.9448 0.63271,1.58415 1.57562,1.58415 0.8082,0 1.32803,-0.36995 1.42858,-1.0131 m -2.31078,-0.93816 c 0.074,-0.46576 0.36331,-0.74275 0.7769,-0.74275 0.45248,0 0.70007,0.25043 0.73706,0.74275 z"
         class="cls-2"
         inkscape:connector-curvature="0"
         style="fill:#00005a;stroke-width:0.09485958" />
      <path
         id="path30"
         d="m -320.78546,294.19472 c -0.47429,-0.44299 -1.12313,-0.6773 -1.88201,-0.6773 -1.67143,0 -2.83915,1.21136 -2.83915,2.94634 v 0.0863 c 0,1.73687 1.16203,2.90365 2.89322,2.90365 1.48455,0 2.44074,-0.68015 2.62382,-1.86494 l 0.008,-0.0503 h -1.34605 l -0.007,0.036 c -0.0949,0.54639 -0.51604,0.82433 -1.24741,0.82433 -0.91444,0 -1.44661,-0.56062 -1.50257,-1.57846 h 4.11595 v -0.42023 c 0,-0.95524 -0.27509,-1.69704 -0.81769,-2.20549 m -3.2698,1.67048 c 0.14039,-0.83382 0.64409,-1.31001 1.38969,-1.31001 0.80251,0 1.24645,0.4411 1.31855,1.31001 z"
         class="cls-2"
         inkscape:connector-curvature="0"
         style="fill:#00005a;stroke-width:0.09485958" />
      <path
         id="path32"
         d="m -316.95123,295.85097 c -0.87176,-0.14703 -1.12409,-0.29881 -1.12409,-0.6773 0,-0.37849 0.32537,-0.62322 0.84899,-0.62322 0.56916,0 0.85374,0.21438 0.95714,0.71808 l 0.008,0.0351 h 1.28819 l -0.006,-0.0484 c -0.12711,-1.15254 -0.88314,-1.73783 -2.24723,-1.73783 a 2.5612087,2.5612087 0 0 0 -1.47411,0.42877 1.5424168,1.5424168 0 0 0 -0.6773,1.30337 c 0,1.0501 0.54165,1.50922 2.06889,1.75301 0.88314,0.14893 1.16772,0.32726 1.16772,0.73136 0,0.46197 -0.30735,0.67635 -0.96662,0.67635 -0.68489,0 -1.00646,-0.25802 -1.07476,-0.86417 v -0.0389 h -1.31475 v 0.0455 c 0.0541,1.20851 0.92867,1.89719 2.39805,1.89719 1.46937,0 2.29086,-0.67065 2.29086,-1.83932 0,-1.19808 -0.78639,-1.5538 -2.14478,-1.76344"
         class="cls-2"
         inkscape:connector-curvature="0"
         style="fill:#00005a;stroke-width:0.09485958" />
      <path
         id="path34"
         d="m -311.78613,295.85097 c -0.87176,-0.14703 -1.12408,-0.29881 -1.12408,-0.6773 0,-0.37849 0.32536,-0.62322 0.84899,-0.62322 0.56916,0 0.85374,0.21438 0.95713,0.71808 l 0.008,0.0351 h 1.28819 l -0.006,-0.0484 c -0.12711,-1.15254 -0.88314,-1.73783 -2.24722,-1.73783 a 2.5612087,2.5612087 0 0 0 -1.47412,0.42877 1.5424168,1.5424168 0 0 0 -0.6773,1.30337 c 0,1.0501 0.54165,1.50922 2.06889,1.75301 0.88314,0.14893 1.16772,0.32726 1.16772,0.73136 0,0.46197 -0.30734,0.67635 -0.96662,0.67635 -0.68488,0 -1.00646,-0.25802 -1.07476,-0.86417 v -0.0389 h -1.3157 v 0.0455 c 0.0541,1.20851 0.92868,1.89719 2.39805,1.89719 1.46938,0 2.29086,-0.67065 2.29086,-1.83932 0,-1.19808 -0.78638,-1.5538 -2.14477,-1.76344"
         class="cls-2"
         inkscape:connector-curvature="0"
         style="fill:#00005a;stroke-width:0.09485958" />
      <path
         id="path36"
         d="m -308.21372,291.21708 a 0.79871766,0.79871766 0 0 0 -0.81769,0.79682 0.81863818,0.81863818 0 0 0 1.63349,0 0.79871766,0.79871766 0 0 0 -0.8158,-0.79682"
         class="cls-2"
         inkscape:connector-curvature="0"
         style="fill:#00005a;stroke-width:0.09485958" />
      <polygon
         transform="matrix(0.09485958,0,0,0.09485958,-337.65813,291.21708)"
         id="polygon38"
         points="303.72,85.7 317.43,85.7 317.89,85.7 317.89,85.24 317.89,25.96 317.89,25.5 317.43,25.5 303.72,25.5 303.25,25.5 303.25,25.96 303.25,85.24 303.25,85.7 "
         class="cls-2"
         style="fill:#00005a" />
      <path
         id="path40"
         d="m -304.13001,298.29171 c -0.39936,0 -0.60141,-0.22767 -0.60141,-0.67635 v -2.91314 h 1.23317 V 293.636 h -1.23317 v -1.23318 h -1.3878 v 1.23318 h -0.72472 v 1.06622 h 0.72472 v 3.03551 c 0,1.10321 0.61849,1.70747 1.74257,1.70747 a 2.5612087,2.5612087 0 0 0 0.89643,-0.14229 l 0.0284,-0.0104 v -1.12978 l -0.0607,0.0247 a 1.5452626,1.5452626 0 0 1 -0.61753,0.10435"
         class="cls-2"
         inkscape:connector-curvature="0"
         style="fill:#00005a;stroke-width:0.09485958" />
      <polygon
         transform="matrix(0.09485958,0,0,0.09485958,-337.65813,291.21708)"
         id="polygon42"
         points="392.44,105.7 424.74,26.14 425,25.5 424.31,25.5 410.94,25.5 410.62,25.5 410.51,25.8 396.42,62.9 381.11,25.79 380.99,25.5 380.68,25.5 365.83,25.5 365.12,25.5 365.41,26.15 388.79,79.24 378.1,105.35 377.84,105.99 378.52,105.99 392.01,105.99 392.32,105.99 "
         class="cls-2"
         style="fill:#00005a" />
    </g>
  </g>
</svg>
