<?xml version="1.0" standalone="no"?>
<!DOCTYPE svg PUBLIC "-//W3C//DTD SVG 20010904//EN"
 "http://www.w3.org/TR/2001/REC-SVG-20010904/DTD/svg10.dtd">
<svg version="1.0" xmlns="http://www.w3.org/2000/svg"
 width="2298.000000pt" height="1276.000000pt" viewBox="0 0 2298.000000 1276.000000"
 preserveAspectRatio="xMidYMid meet">

<g transform="translate(0.000000,1276.000000) scale(0.100000,-0.100000)"
fill="#000000" stroke="none">
<path d="M21236 10815 c-3 -8 -18 -17 -33 -20 -42 -10 -137 -51 -160 -70 -7
-5 -30 -23 -52 -40 -22 -16 -40 -34 -41 -38 0 -5 -11 -23 -25 -41 -14 -18 -25
-40 -25 -49 0 -8 -6 -22 -13 -29 -40 -39 -40 -276 -1 -333 8 -11 14 -27 14
-37 0 -10 4 -18 8 -18 4 0 16 -15 27 -32 19 -34 84 -98 98 -98 4 0 20 -11 35
-25 15 -14 33 -25 40 -25 7 0 36 -7 63 -16 38 -13 72 -15 142 -11 107 7 144
18 215 70 29 20 55 37 60 37 4 0 22 25 40 55 18 30 37 55 43 55 5 0 9 11 9 25
0 21 5 25 30 25 l30 0 0 159 0 160 -27 3 c-18 2 -29 10 -32 23 -2 11 -16 36
-32 56 -16 20 -29 40 -29 44 0 30 -187 145 -236 145 -13 0 -33 9 -44 20 -24
24 -95 28 -104 5z m194 -74 c14 -8 32 -18 40 -23 8 -4 24 -12 35 -17 22 -9
105 -91 105 -103 0 -3 6 -13 13 -20 25 -27 47 -77 47 -106 0 -17 5 -34 10 -37
6 -3 10 -35 10 -70 0 -35 -4 -67 -10 -70 -5 -3 -10 -19 -10 -36 0 -16 -12 -52
-27 -80 -31 -57 -126 -159 -149 -159 -8 0 -14 -4 -14 -10 0 -5 -9 -10 -20 -10
-12 0 -31 -7 -44 -15 -34 -22 -228 -22 -262 -1 -13 9 -32 16 -44 16 -11 0 -20
5 -20 10 0 6 -6 10 -13 10 -17 0 -117 100 -117 116 0 8 -4 14 -8 14 -8 0 -20
25 -56 114 -21 51 -20 139 3 201 31 86 40 105 51 105 5 0 10 8 10 18 0 30 134
142 169 142 12 0 21 4 21 9 0 15 38 19 150 17 66 -1 114 -7 130 -15z"/>
<path d="M21162 10363 c3 -186 5 -218 18 -218 12 0 16 18 18 91 2 84 5 92 24
97 39 11 72 -4 101 -44 15 -22 27 -43 27 -48 0 -5 7 -14 15 -21 8 -7 15 -19
15 -27 0 -22 26 -43 54 -43 28 0 28 -1 -5 60 -5 8 -16 29 -24 47 -9 17 -23 34
-31 37 -24 9 -17 55 10 66 38 14 56 49 56 108 0 39 -6 61 -22 82 l-22 30 -118
0 -118 0 2 -217z m193 169 c15 -10 45 -59 45 -73 0 -6 -9 -23 -20 -39 -17 -23
-28 -28 -77 -32 -32 -3 -68 -2 -80 3 -21 8 -23 15 -23 72 0 35 3 67 7 70 9 9
135 9 148 -1z"/>
<path d="M18372 10776 c-35 -17 -40 -55 -11 -77 13 -10 33 -19 44 -19 11 0 27
-5 35 -10 13 -9 13 -13 -1 -37 -29 -52 -38 -68 -43 -83 -4 -8 -20 -37 -36 -65
-16 -27 -40 -70 -52 -95 -13 -25 -25 -47 -28 -50 -8 -8 -28 -42 -54 -95 -14
-27 -39 -72 -56 -100 -16 -27 -39 -70 -51 -95 -12 -25 -24 -47 -28 -50 -6 -5
-13 -18 -81 -146 -21 -40 -50 -90 -64 -113 -14 -22 -26 -47 -26 -55 0 -8 -4
-17 -9 -21 -6 -3 -20 -26 -32 -50 -12 -25 -26 -45 -31 -45 -4 0 -8 -6 -8 -14
0 -17 -32 -80 -42 -84 -5 -2 -8 -10 -8 -17 0 -8 -6 -20 -13 -27 -7 -7 -28 -43
-47 -80 -19 -38 -38 -68 -42 -68 -4 0 -8 -9 -8 -19 0 -11 -5 -23 -10 -26 -6
-4 -23 -32 -38 -63 -32 -65 -65 -125 -72 -132 -3 -3 -18 -30 -34 -60 -59 -113
-68 -130 -77 -136 -5 -3 -9 -14 -9 -25 0 -10 -4 -19 -9 -19 -5 0 -12 -11 -15
-25 -4 -14 -11 -25 -16 -25 -6 0 -10 -6 -10 -14 0 -8 -6 -21 -12 -28 -7 -7
-28 -42 -46 -78 -49 -99 -86 -165 -94 -168 -5 -2 -8 -12 -8 -22 0 -10 -4 -21
-9 -25 -6 -3 -20 -26 -32 -50 -12 -25 -26 -45 -31 -45 -4 0 -8 -7 -8 -15 0 -8
-17 -43 -37 -77 -21 -35 -54 -93 -73 -131 -19 -37 -38 -67 -42 -67 -4 0 -8 -6
-8 -14 0 -8 -8 -29 -17 -48 -9 -18 -20 -41 -25 -51 -5 -10 -12 -40 -15 -65 -4
-38 -1 -52 15 -72 l20 -25 536 0 c421 0 538 3 548 13 20 20 -4 46 -48 52 -46
6 -55 31 -30 85 9 18 16 38 16 44 0 6 5 11 10 11 6 0 10 7 10 15 0 9 11 33 25
54 13 22 27 51 31 65 3 14 10 26 15 26 5 0 9 8 9 19 0 10 7 24 15 31 8 7 15
19 15 26 0 8 11 31 23 52 13 20 27 49 30 63 4 16 16 29 29 33 13 3 208 6 434
6 326 0 414 -3 422 -13 7 -8 13 -90 15 -213 2 -109 7 -212 12 -229 8 -29 80
-105 100 -105 5 0 24 -8 40 -18 28 -16 75 -17 578 -17 506 0 549 1 558 17 5 9
16 24 24 32 16 16 21 106 6 106 -5 0 -12 9 -16 19 -3 11 -16 23 -28 26 -67 19
-77 27 -77 61 0 18 -5 55 -10 81 -10 45 -17 149 -39 583 -5 96 -14 195 -20
220 -6 25 -11 127 -11 228 0 101 -5 202 -10 225 -10 41 -24 243 -39 588 -5 97
-12 183 -17 190 -4 7 -11 99 -16 204 -4 104 -12 231 -17 280 -5 50 -10 97 -10
105 -1 8 -12 27 -25 43 l-23 27 -819 -1 c-585 -1 -826 -5 -842 -13z m689
-1033 c0 -104 4 -253 9 -333 21 -319 23 -449 10 -465 -11 -13 -50 -15 -257
-15 -149 0 -252 4 -264 10 -27 15 -24 50 13 128 18 37 35 69 38 72 3 3 13 22
23 43 9 20 25 54 35 75 9 20 20 39 23 42 4 3 9 15 13 28 4 12 12 22 17 22 5 0
9 6 9 14 0 13 37 95 61 136 5 8 25 49 45 90 21 41 41 77 46 78 4 2 8 10 8 18
0 8 11 31 23 52 13 20 27 49 31 65 3 15 11 27 16 27 6 0 10 5 10 12 0 6 8 29
18 49 14 31 22 39 45 39 l27 0 1 -187z"/>
<path d="M6938 10774 c-56 -17 -11 -94 55 -94 53 0 73 -46 42 -100 -8 -14 -14
-37 -15 -52 0 -15 -4 -30 -10 -33 -5 -3 -10 -17 -10 -29 0 -23 -19 -96 -42
-161 -5 -16 -14 -46 -18 -65 -24 -100 -32 -126 -41 -134 -5 -6 -9 -28 -9 -50
-1 -23 -7 -52 -15 -66 -8 -14 -14 -37 -15 -52 0 -15 -4 -30 -10 -33 -5 -3 -10
-15 -10 -27 0 -11 -6 -34 -14 -51 -8 -18 -17 -48 -19 -67 -6 -38 -25 -114 -38
-145 -4 -11 -10 -37 -14 -57 -3 -21 -10 -38 -15 -38 -6 0 -10 -14 -10 -31 0
-17 -5 -40 -12 -52 -6 -12 -15 -40 -19 -62 -19 -96 -30 -140 -39 -149 -6 -6
-10 -24 -10 -41 0 -17 -5 -36 -11 -42 -11 -11 -20 -46 -39 -147 -5 -27 -14
-54 -20 -60 -5 -5 -10 -24 -10 -40 -1 -17 -7 -42 -15 -56 -8 -14 -14 -37 -15
-52 0 -15 -4 -29 -9 -32 -4 -3 -11 -28 -15 -55 -4 -28 -11 -53 -16 -56 -6 -3
-10 -18 -10 -32 0 -25 -25 -111 -41 -145 -5 -10 -9 -28 -9 -40 -1 -13 -7 -34
-15 -48 -8 -14 -14 -38 -15 -54 0 -28 -24 -113 -41 -148 -5 -10 -9 -27 -9 -39
0 -11 -5 -30 -12 -42 -6 -12 -16 -40 -20 -62 -47 -206 -45 -265 7 -276 38 -8
1268 -11 1289 -3 10 4 16 18 16 35 0 27 -3 29 -37 29 -59 0 -83 10 -83 33 0
21 16 80 30 107 4 9 11 30 15 48 3 18 11 32 16 32 5 0 9 12 9 28 0 15 7 36 15
46 8 11 15 32 15 46 0 24 14 63 41 112 5 10 9 26 9 35 0 10 7 27 15 37 8 11
15 30 15 42 0 13 5 26 10 29 6 3 10 18 10 33 0 15 7 40 15 56 8 15 15 36 15
45 0 9 7 25 15 35 8 11 15 28 15 38 0 10 4 26 8 36 5 9 15 31 23 47 l15 30
419 6 c520 8 652 23 822 96 17 7 36 13 42 13 6 0 29 11 51 25 22 14 43 25 47
25 13 0 163 162 163 176 0 2 18 29 40 58 22 29 40 56 40 59 0 9 64 101 73 105
4 2 7 7 7 11 0 4 25 46 55 92 30 46 55 89 55 96 0 14 32 77 43 81 4 2 7 14 7
27 0 12 7 28 15 35 8 7 15 27 15 46 0 18 4 35 9 38 5 3 12 26 15 51 4 24 11
47 17 50 5 4 9 21 9 39 0 19 7 53 15 76 21 60 21 353 0 394 -8 15 -15 36 -15
46 0 10 -6 31 -14 47 -8 15 -22 46 -32 67 -24 56 -131 157 -200 190 -98 46
-118 54 -149 59 -16 3 -48 11 -70 17 -29 9 -348 13 -1195 15 -635 2 -1162 2
-1172 -1z m1562 -565 c104 -36 150 -76 175 -152 17 -52 22 -148 8 -170 -4 -7
-10 -32 -14 -57 -7 -45 -29 -110 -40 -120 -3 -3 -9 -17 -13 -32 -3 -16 -11
-28 -16 -28 -6 0 -10 -6 -10 -14 0 -7 -17 -26 -37 -42 -21 -16 -49 -39 -63
-51 -14 -13 -33 -23 -42 -23 -10 0 -18 -4 -18 -8 0 -8 -29 -21 -110 -52 -54
-20 -141 -30 -305 -36 -140 -6 -151 -5 -168 14 -17 18 -17 21 -1 53 28 55 31
63 39 97 3 18 11 32 16 32 5 0 9 14 9 31 0 17 7 45 16 62 31 59 34 67 34 85 0
10 7 27 15 38 8 10 15 31 15 46 0 15 4 29 9 33 5 3 13 20 17 37 7 34 10 42 37
96 9 19 17 40 17 47 0 7 7 26 15 42 8 15 17 40 20 55 3 14 13 29 23 32 32 10
336 -3 372 -15z"/>
<path d="M10018 10774 c-19 -6 -31 -34 -23 -55 6 -17 51 -39 78 -39 32 0 57
-20 57 -45 0 -13 -4 -26 -9 -29 -5 -3 -12 -26 -15 -51 -4 -24 -11 -47 -17 -50
-5 -4 -9 -19 -9 -34 0 -16 -7 -42 -15 -57 -8 -16 -15 -46 -15 -66 0 -20 -4
-40 -10 -43 -5 -3 -10 -16 -10 -28 0 -12 -7 -35 -15 -51 -8 -15 -15 -40 -15
-55 -1 -14 -7 -37 -15 -51 -8 -14 -14 -42 -15 -62 0 -20 -4 -40 -10 -43 -5 -3
-10 -18 -10 -33 0 -15 -7 -40 -15 -56 -8 -15 -15 -39 -15 -51 0 -12 -7 -36
-15 -51 -8 -16 -15 -41 -15 -56 0 -15 -4 -29 -9 -32 -4 -3 -11 -28 -15 -55 -4
-28 -11 -53 -16 -56 -6 -3 -10 -21 -10 -38 -1 -18 -7 -43 -15 -57 -8 -14 -14
-37 -15 -52 0 -15 -4 -30 -10 -33 -5 -3 -10 -18 -10 -33 0 -15 -7 -40 -15 -56
-8 -15 -15 -45 -15 -65 -1 -20 -7 -47 -15 -61 -8 -14 -14 -37 -15 -52 0 -15
-4 -30 -10 -33 -5 -3 -10 -16 -10 -28 0 -12 -7 -35 -15 -51 -8 -15 -15 -40
-15 -54 0 -27 -26 -125 -41 -154 -5 -10 -9 -28 -9 -40 0 -13 -7 -36 -15 -52
-8 -15 -15 -41 -15 -57 0 -15 -4 -30 -9 -34 -5 -3 -13 -30 -16 -60 -4 -31 -11
-58 -16 -61 -5 -3 -9 -18 -9 -33 0 -15 -7 -36 -15 -47 -8 -10 -15 -31 -15 -45
0 -15 -7 -43 -15 -62 -8 -20 -15 -50 -15 -66 0 -16 -4 -33 -10 -36 -5 -3 -10
-18 -10 -33 0 -15 -7 -40 -15 -56 -8 -15 -15 -39 -15 -52 0 -13 -4 -32 -9 -42
-6 -9 -16 -42 -24 -72 -8 -30 -20 -75 -27 -100 -22 -82 -22 -104 -1 -130 l20
-25 638 -3 c351 -1 648 0 661 3 18 4 23 11 20 33 -3 25 -7 27 -56 30 -44 3
-55 7 -64 27 -8 18 -7 31 6 56 9 17 16 38 16 45 0 12 21 66 41 106 5 10 9 26
9 35 0 10 7 31 15 47 8 15 15 38 15 50 0 12 7 31 15 42 8 10 15 27 15 37 0 17
3 24 33 85 9 19 17 44 17 57 0 12 7 36 15 51 8 16 15 37 15 46 0 9 5 20 10 23
6 3 10 15 10 27 0 11 6 32 14 46 8 15 22 54 31 87 10 33 21 68 26 77 5 10 9
26 9 36 0 10 7 27 15 38 8 10 15 27 15 37 0 29 32 77 51 77 23 0 36 -18 44
-63 4 -20 11 -40 16 -43 5 -3 9 -15 9 -27 0 -12 7 -31 15 -41 8 -11 15 -32 15
-47 0 -15 5 -31 10 -34 6 -3 10 -16 10 -28 0 -12 7 -35 15 -51 8 -15 15 -38
15 -50 0 -11 7 -30 15 -40 8 -11 15 -29 15 -41 0 -12 4 -25 9 -31 10 -11 41
-107 41 -127 0 -8 7 -28 15 -43 8 -16 15 -37 15 -46 0 -9 5 -20 10 -23 6 -3
10 -16 10 -29 0 -12 7 -31 15 -42 8 -10 15 -35 15 -54 0 -19 7 -44 15 -54 8
-11 15 -30 15 -42 0 -13 5 -26 10 -29 6 -3 10 -14 10 -23 0 -9 7 -30 15 -46 8
-15 15 -35 15 -42 0 -8 8 -27 17 -42 39 -61 3 -57 547 -60 276 -2 515 -1 532
3 27 5 33 12 49 63 11 31 23 61 27 66 4 6 8 24 8 40 1 17 7 42 15 56 8 14 14
35 15 48 0 12 4 30 9 40 6 9 13 38 16 64 3 26 10 50 16 53 5 4 9 17 9 31 0 14
6 37 14 53 20 37 10 47 -54 55 -71 9 -115 32 -137 73 -10 18 -21 33 -25 33 -5
0 -8 8 -8 18 0 9 -7 26 -15 36 -8 11 -15 28 -15 38 0 10 -4 18 -8 18 -5 0 -18
22 -30 49 -12 27 -26 52 -32 56 -5 3 -10 17 -10 30 0 13 -3 25 -7 27 -11 4
-43 67 -43 84 0 8 -4 14 -8 14 -9 0 -42 69 -42 87 0 6 -7 16 -15 23 -8 7 -15
20 -15 30 0 10 -7 23 -15 30 -8 7 -15 25 -15 41 0 33 23 49 74 49 19 0 38 5
41 10 3 6 15 10 27 10 19 0 77 22 108 41 8 5 22 12 30 15 37 14 57 27 89 54
18 17 38 30 43 30 17 0 148 141 148 160 0 10 4 21 9 25 13 8 71 128 71 148 0
15 19 66 41 109 5 10 9 25 9 34 0 9 6 30 14 47 8 18 17 48 20 67 9 59 31 148
39 156 4 4 7 19 7 33 0 14 7 39 15 55 21 41 21 332 0 360 -8 11 -15 30 -15 43
0 13 -4 23 -9 23 -5 0 -12 12 -15 26 -4 14 -35 53 -69 88 -65 65 -143 110
-212 121 -22 4 -44 10 -50 15 -5 4 -35 10 -65 13 -30 3 -75 11 -100 18 -32 8
-372 12 -1210 14 -641 2 -1173 1 -1182 -1z m1706 -569 c22 -11 42 -27 46 -35
4 -8 14 -28 21 -44 17 -34 17 -142 1 -158 -7 -7 -12 -26 -12 -44 0 -27 -50
-139 -69 -154 -3 -3 -12 -17 -20 -32 -37 -72 -163 -168 -220 -168 -11 0 -23
-4 -26 -10 -7 -11 -352 -14 -379 -4 -18 7 -22 39 -6 49 6 3 10 27 10 52 0 25
6 59 14 76 8 18 17 48 20 67 9 59 31 148 39 156 4 4 7 22 7 41 0 18 7 50 15
70 8 19 15 55 15 79 0 31 6 50 21 65 20 20 28 21 252 17 206 -3 236 -6 271
-23z"/>
<path d="M13373 10770 c-13 -5 -23 -18 -23 -29 0 -23 49 -61 80 -61 12 0 30
-5 40 -10 17 -9 19 -18 13 -57 -3 -26 -12 -58 -20 -73 -7 -14 -13 -33 -13 -43
0 -9 -4 -25 -9 -35 -6 -9 -13 -38 -16 -64 -3 -26 -10 -50 -16 -53 -5 -4 -9
-21 -9 -40 0 -19 -4 -36 -9 -39 -5 -4 -12 -24 -16 -46 -4 -22 -11 -42 -16 -46
-5 -3 -9 -17 -9 -31 0 -14 -6 -39 -14 -56 -8 -18 -17 -48 -19 -67 -3 -19 -12
-60 -22 -90 -9 -30 -20 -72 -25 -93 -4 -21 -13 -44 -19 -50 -6 -6 -11 -26 -11
-43 0 -18 -4 -35 -9 -38 -5 -3 -12 -30 -16 -61 -3 -30 -11 -57 -16 -60 -5 -4
-9 -18 -9 -33 -1 -15 -7 -38 -15 -52 -8 -14 -14 -37 -15 -52 0 -15 -4 -29 -9
-32 -5 -4 -12 -29 -16 -56 -4 -27 -11 -52 -16 -56 -5 -3 -9 -20 -9 -37 -1 -18
-7 -43 -15 -57 -8 -14 -14 -37 -15 -52 0 -15 -4 -29 -9 -32 -5 -3 -12 -26 -15
-51 -4 -24 -11 -47 -17 -50 -5 -4 -9 -23 -9 -43 -1 -20 -7 -48 -15 -62 -8 -14
-14 -39 -15 -57 0 -17 -4 -35 -10 -38 -5 -3 -10 -16 -10 -28 0 -12 -7 -35 -15
-51 -8 -15 -15 -40 -15 -55 -1 -14 -7 -37 -15 -51 -8 -14 -14 -42 -15 -62 0
-20 -4 -40 -10 -43 -5 -3 -10 -16 -10 -28 0 -12 -7 -35 -15 -51 -8 -15 -15
-39 -15 -53 0 -13 -5 -34 -12 -46 -6 -12 -15 -40 -19 -62 -15 -79 -31 -140
-40 -149 -5 -6 -9 -21 -9 -35 -1 -15 -7 -37 -15 -51 -8 -14 -14 -36 -15 -51 0
-14 -5 -30 -10 -35 -12 -12 -17 -201 -6 -212 4 -4 305 -7 669 -7 l662 0 3 33
c3 32 3 32 -43 32 -71 0 -85 11 -73 57 24 93 41 149 49 165 5 10 9 26 9 35 0
10 7 31 15 47 8 15 15 42 15 60 1 17 7 42 15 56 8 14 14 37 15 52 0 15 5 30
10 33 6 3 10 16 10 28 0 12 7 35 15 51 8 15 15 37 15 48 0 21 26 110 41 140 5
10 9 28 9 41 0 13 7 32 15 43 8 10 15 33 15 50 0 16 4 34 10 40 5 5 14 30 19
54 19 89 32 135 42 144 5 6 9 19 9 29 0 20 27 109 41 139 5 10 9 30 9 45 0 16
7 41 15 57 8 15 15 36 15 45 1 19 34 119 44 128 3 3 6 19 6 35 0 16 7 45 15
65 8 19 15 43 15 53 0 10 7 31 15 46 8 16 15 39 15 51 0 12 5 25 10 28 6 3 10
19 10 34 0 15 7 36 15 47 8 10 15 32 15 47 0 31 28 127 41 142 5 5 9 23 9 40
0 17 5 36 12 43 6 6 15 30 19 54 13 72 30 132 40 142 5 6 9 21 9 35 1 15 7 37
15 51 8 14 14 37 15 52 0 15 4 30 10 33 5 3 12 28 16 56 4 27 11 52 15 55 5 3
9 52 9 110 0 92 -3 108 -21 127 l-20 22 -652 2 c-379 1 -661 -2 -674 -7z"/>
<path d="M15594 10755 c-10 -8 -27 -15 -36 -15 -9 0 -29 -6 -45 -14 -15 -8
-67 -33 -115 -57 -49 -23 -88 -46 -88 -51 0 -4 -6 -8 -13 -8 -31 0 -149 -96
-200 -163 -12 -16 -26 -34 -32 -41 -5 -6 -18 -29 -29 -51 -10 -22 -22 -47 -26
-55 -4 -9 -11 -30 -14 -48 -4 -17 -12 -34 -17 -37 -5 -4 -9 -17 -9 -29 0 -13
-7 -40 -15 -59 -8 -20 -15 -54 -15 -76 0 -22 -4 -42 -9 -45 -4 -3 -11 -26 -15
-52 -3 -26 -11 -53 -16 -59 -16 -20 -7 -438 11 -500 21 -76 22 -76 185 -192
12 -9 35 -22 84 -48 19 -10 42 -22 50 -26 8 -5 35 -19 60 -31 25 -13 47 -26
48 -30 2 -5 9 -8 15 -8 15 0 141 -62 145 -72 2 -4 12 -8 22 -8 9 0 23 -7 30
-15 7 -8 18 -15 24 -15 15 0 240 -112 244 -122 2 -4 11 -8 20 -8 10 0 37 -18
62 -40 25 -22 48 -40 52 -40 4 0 20 -18 34 -40 23 -35 26 -46 20 -89 -4 -27
-13 -62 -20 -76 -26 -51 -91 -124 -126 -142 -19 -10 -41 -24 -48 -30 -7 -7
-22 -13 -32 -13 -10 0 -22 -4 -25 -10 -4 -6 -163 -10 -445 -10 l-439 0 -38 38
c-46 47 -93 100 -93 107 0 5 -24 35 -79 97 -41 47 -97 76 -119 62 -16 -11 -37
-86 -52 -189 -5 -33 -16 -109 -25 -170 -8 -60 -20 -139 -25 -175 -5 -36 -12
-76 -16 -88 -14 -48 49 -222 80 -222 5 0 18 -8 29 -17 18 -17 81 -18 1021 -18
941 0 1003 1 1020 18 10 9 22 17 28 17 6 0 26 11 44 25 18 14 36 25 40 25 12
0 94 83 142 145 51 66 62 80 77 98 9 10 51 89 84 155 4 9 16 31 25 49 9 17 16
41 16 52 0 12 4 29 9 39 38 77 41 114 41 476 0 325 -2 358 -17 375 -10 10 -38
44 -63 76 -65 83 -81 99 -122 124 -21 12 -38 27 -38 32 0 5 -7 9 -15 9 -8 0
-15 4 -15 9 0 5 -8 11 -17 15 -10 3 -40 19 -68 36 -27 16 -60 35 -72 42 -13 6
-23 15 -23 20 0 4 -9 8 -20 8 -18 0 -43 12 -115 57 -28 17 -92 48 -142 69 -24
10 -43 21 -43 26 0 4 -6 8 -12 8 -7 0 -38 12 -68 26 -30 15 -71 34 -90 43 -50
23 -100 77 -101 109 -5 150 38 207 183 241 31 7 210 11 517 11 448 0 471 1
471 18 0 10 7 27 15 38 8 10 15 29 15 40 0 12 7 27 15 34 8 7 15 20 15 30 0 9
3 20 8 24 28 28 54 334 32 376 -11 20 -15 20 -853 20 -726 0 -846 -2 -863 -15z"/>
<path d="M18695 7490 c-88 -4 -290 -8 -450 -9 -159 -1 -333 -6 -385 -12 -63
-8 -412 -11 -1028 -11 l-933 0 -17 -36 c-19 -40 -92 -87 -99 -64 -3 6 -14 12
-25 12 -11 0 -32 6 -46 14 -43 23 -99 46 -111 46 -6 0 -11 5 -11 10 0 6 -10
10 -23 10 -12 0 -31 6 -42 14 -16 11 -110 14 -496 15 l-477 2 -13 -33 c-7 -18
-15 -46 -18 -63 l-6 -30 -122 -3 -123 -3 -48 48 c-41 40 -60 51 -118 66 -79
20 -234 23 -267 5 -32 -17 -191 -22 -290 -9 -92 12 -177 4 -244 -25 -17 -8
-40 -14 -51 -14 -12 0 -24 -4 -27 -10 -3 -5 -13 -10 -21 -10 -8 0 -33 -12 -57
-27 -40 -26 -48 -27 -165 -26 -78 0 -127 4 -135 12 -6 6 -18 11 -27 11 -15 0
-54 27 -92 63 -10 9 -22 17 -27 17 -5 0 -14 7 -21 15 -8 10 -31 15 -71 15
l-59 0 0 -63 0 -64 -187 -7 c-104 -4 -197 -8 -209 -8 -27 0 -88 28 -138 64
-21 15 -45 28 -52 28 -7 0 -14 4 -16 10 -2 5 -60 10 -129 12 -124 2 -127 2
-163 -25 -19 -15 -48 -44 -63 -65 -15 -20 -34 -41 -40 -45 -7 -4 -13 -13 -13
-20 -1 -16 -36 -57 -49 -57 -6 0 -11 -4 -11 -10 0 -5 -9 -10 -19 -10 -11 0
-23 5 -26 10 -3 6 -15 10 -25 10 -21 0 -70 58 -70 82 0 22 -33 48 -61 48 -13
1 -35 7 -49 15 -43 24 -95 19 -127 -13 -36 -36 -65 -52 -96 -52 -32 0 -45 -30
-49 -108 l-3 -62 110 -1 c61 0 137 -5 170 -10 33 -6 227 -12 430 -15 368 -5
370 -5 387 -27 10 -13 18 -40 18 -64 0 -40 2 -43 27 -43 44 0 93 22 93 42 0 9
15 33 34 52 29 28 44 35 95 41 33 4 65 4 71 0 5 -3 24 1 42 9 49 25 98 21 125
-10 12 -15 21 -29 20 -33 -2 -3 -9 -19 -17 -34 -19 -39 -1 -49 70 -40 94 12
709 7 760 -6 25 -7 64 -16 88 -20 24 -5 53 -18 65 -29 21 -22 21 -22 3 -54
-41 -72 -40 -71 -156 -65 -58 4 -140 12 -183 19 -70 10 -81 10 -107 -6 -27
-15 -57 -16 -322 -12 -161 3 -331 10 -378 16 -122 14 -177 13 -206 -6 -21 -14
-44 -16 -147 -11 -67 3 -138 11 -157 17 -19 5 -110 10 -201 10 -131 0 -173 -3
-195 -15 -25 -14 -91 -16 -479 -14 -247 0 -457 1 -467 0 -9 -1 -37 -23 -63
-50 -65 -68 -128 -89 -222 -73 -37 6 -103 14 -145 18 -43 3 -78 10 -78 15 0 5
-6 9 -14 9 -8 0 -41 17 -73 38 -104 67 -130 77 -159 63 -21 -9 -40 -9 -81 -1
-45 10 -67 9 -123 -5 -68 -17 -68 -17 -82 -62 -13 -44 -50 -83 -80 -83 -24 0
-127 58 -157 89 -16 17 -31 38 -33 48 -3 16 -19 18 -186 21 l-182 2 -63 -63
c-72 -74 -113 -97 -173 -97 -36 0 -49 6 -79 37 -19 20 -35 42 -35 49 0 7 -8
26 -17 43 -16 27 -24 31 -60 31 -46 0 -43 4 -67 -102 -7 -31 -11 -32 -123 -28
-101 3 -113 -3 -113 -51 0 -42 17 -65 91 -120 34 -26 39 -27 329 -43 162 -9
313 -22 335 -27 66 -18 108 -42 119 -71 10 -27 12 -27 71 -21 33 3 64 9 69 14
6 5 19 9 31 9 12 0 30 7 41 15 10 8 26 15 35 15 9 0 29 6 45 14 43 21 154 29
180 14 12 -7 57 -34 100 -60 l79 -48 163 0 c89 0 206 5 260 11 120 14 612 -6
624 -24 4 -7 8 -30 8 -52 0 -29 -7 -46 -24 -63 l-24 -22 -898 0 c-613 1 -900
-2 -908 -10 -5 -5 -19 -10 -31 -10 -12 0 -30 -7 -41 -15 -10 -8 -27 -15 -36
-15 -9 0 -29 -6 -45 -14 -75 -37 -89 -41 -157 -39 -39 2 -72 7 -74 13 -2 5 -8
10 -14 10 -6 0 -27 12 -47 28 -57 43 -78 52 -122 52 -22 0 -56 7 -75 16 -44
21 -76 17 -194 -29 -57 -21 -96 -43 -116 -64 -30 -32 -88 -30 -156 4 -29 15
-55 31 -58 34 -3 4 -19 11 -35 15 -17 4 -35 10 -40 15 -6 4 -54 11 -107 15
-90 6 -97 5 -107 -14 -6 -11 -11 -36 -11 -56 0 -24 -5 -36 -17 -40 -10 -2
-142 -8 -293 -12 -151 -3 -283 -10 -294 -13 -17 -7 -16 -10 13 -43 59 -67 47
-71 -206 -66 l-188 3 0 -45 0 -45 860 -5 860 -5 3 -30 c1 -16 7 -39 12 -50 30
-64 46 -180 29 -214 -22 -44 -61 -81 -87 -81 -13 0 -32 -5 -43 -11 -15 -7 -35
-7 -72 1 -73 17 -79 21 -105 73 l-24 47 -185 0 c-207 0 -217 -2 -292 -70 l-44
-40 -739 0 c-559 0 -745 -3 -761 -12 -15 -8 -85 -12 -221 -13 -150 0 -200 -3
-203 -12 -3 -7 -11 -13 -18 -13 -8 0 -28 -14 -45 -30 l-31 -30 -140 0 c-135 0
-219 -14 -256 -42 -15 -12 13 -48 37 -48 9 0 21 -5 28 -12 7 -7 80 -13 214
-16 136 -3 213 -9 234 -18 35 -15 53 -49 35 -67 -22 -22 86 -40 265 -44 145
-3 173 -2 184 12 7 8 17 15 22 15 16 0 38 28 38 49 0 11 6 23 12 28 7 4 168 6
358 5 266 -2 352 -6 375 -16 60 -27 81 -35 115 -42 19 -3 41 -11 49 -18 10 -8
101 -10 312 -8 245 2 299 0 306 -11 12 -20 45 -28 151 -36 73 -6 97 -12 113
-27 12 -12 17 -27 14 -36 -7 -19 -55 -38 -94 -38 -15 0 -33 -6 -40 -12 -9 -10
-120 -13 -474 -15 -254 -1 -471 -2 -482 -2 -11 -1 -36 -16 -55 -34 -58 -55
-76 -62 -230 -87 -60 -10 -531 -3 -675 9 -49 5 -261 9 -470 10 -322 1 -383 -2
-399 -14 -25 -19 -96 -20 -121 -1 -15 11 -17 21 -12 58 8 59 1 81 -33 101 -35
21 -80 22 -106 2 -10 -8 -25 -15 -32 -15 -28 0 -72 -42 -91 -86 l-20 -44 -120
0 c-66 0 -131 -4 -145 -10 -15 -5 -63 -12 -109 -16 -79 -5 -102 -13 -227 -72
-19 -9 -41 -23 -48 -29 -7 -7 -19 -13 -26 -13 -7 0 -21 -16 -32 -35 -10 -19
-22 -35 -26 -35 -5 0 -8 -19 -8 -43 0 -50 16 -64 100 -86 46 -12 264 -15 1392
-18 l1337 -3 3 57 3 58 112 14 c62 7 124 10 138 7 23 -6 25 -11 25 -65 l0 -58
272 -6 c149 -4 367 -7 485 -7 l213 0 0 53 c0 60 10 71 80 81 58 9 82 21 129
67 34 32 47 37 103 42 34 4 88 11 118 16 30 5 115 10 189 10 l133 1 -7 65 c-3
36 -13 79 -22 95 l-14 30 -222 0 c-122 0 -227 4 -233 8 -40 27 -30 115 20 164
27 28 33 29 90 24 34 -2 115 -9 181 -14 66 -6 140 -15 165 -21 27 -7 105 -11
195 -9 l150 3 3 38 c2 22 8 37 16 37 8 0 19 7 26 15 7 8 27 15 44 15 18 0 37
5 42 10 12 12 263 30 327 23 l47 -6 0 41 c0 31 6 48 25 67 24 23 32 25 123 25
53 0 113 -5 132 -11 19 -7 62 -15 95 -19 33 -5 93 -13 134 -19 72 -11 137 -7
176 9 133 54 145 61 145 79 0 9 7 25 15 35 8 11 15 37 15 57 0 21 5 41 10 44
6 3 10 19 10 36 0 30 26 87 51 110 11 12 106 15 522 17 404 2 520 5 570 17 34
8 77 15 95 15 33 0 122 23 154 41 10 5 30 9 46 9 15 0 37 7 48 15 10 8 27 15
36 15 9 0 18 3 20 8 4 10 67 42 83 42 7 0 18 7 25 15 7 8 21 15 30 15 10 0 54
18 97 39 43 22 96 47 118 57 22 9 42 20 45 23 3 3 22 15 43 26 20 11 37 23 37
27 0 5 5 8 10 8 6 0 18 8 28 18 14 14 16 26 9 67 -22 136 -22 137 18 175 l36
35 212 3 c117 2 291 -2 387 -8 96 -6 249 -15 340 -20 91 -5 187 -14 213 -20
71 -15 248 -12 270 4 9 7 17 19 17 25 0 24 44 88 73 104 34 20 151 23 194 5
15 -6 107 -15 203 -19 96 -5 192 -11 213 -15 l37 -6 0 58 c1 45 6 65 21 84 20
24 25 25 113 21 50 -2 312 -5 581 -6 270 -2 508 -3 530 -4 22 -1 163 1 313 5
296 6 308 5 298 -45 -3 -14 0 -33 7 -41 19 -24 108 -40 225 -40 115 1 142 10
142 49 0 24 30 58 63 70 34 12 346 6 360 -8 6 -6 20 -11 32 -11 33 0 75 -46
75 -82 l0 -31 148 6 c81 3 226 11 323 17 124 7 207 7 280 0 57 -6 135 -13 174
-17 61 -5 74 -10 104 -40 19 -18 39 -33 45 -33 6 0 24 -7 41 -16 63 -33 181
-47 345 -40 85 3 250 9 365 12 231 6 255 8 255 28 0 7 12 19 28 27 15 8 33 20
40 27 7 6 22 12 33 12 11 0 27 4 37 9 40 21 217 32 310 20 l91 -12 31 30 c17
16 41 35 53 40 51 23 95 36 135 40 l42 5 0 124 0 124 28 10 c15 6 35 15 44 20
10 6 26 10 37 10 10 0 24 7 31 15 7 8 16 15 21 15 5 0 18 9 29 20 38 38 24
134 -27 188 -7 7 -18 21 -25 30 -16 20 -73 62 -86 62 -5 0 -14 6 -20 13 -6 7
-49 19 -94 27 -46 7 -100 22 -120 32 -47 25 -90 83 -111 149 -5 14 -32 17
-189 23 -327 11 -799 14 -963 6z"/>
<path d="M10163 7348 c-90 -6 -163 -15 -163 -19 0 -5 -7 -9 -15 -9 -24 0 -18
-47 8 -61 12 -7 24 -15 27 -18 5 -6 52 -29 105 -51 17 -6 43 -18 58 -26 19 -9
64 -14 136 -14 59 0 132 -4 162 -9 92 -16 136 -19 148 -11 18 10 30 74 24 120
-7 48 -41 85 -86 94 -61 12 -242 14 -404 4z"/>
<path d="M18650 6050 c-111 -15 -270 -92 -352 -171 -14 -14 -39 -37 -55 -50
-27 -23 -123 -149 -137 -179 -3 -8 -22 -44 -41 -79 -19 -35 -35 -71 -35 -80 0
-9 -7 -29 -15 -45 -8 -15 -15 -40 -15 -55 0 -14 -7 -44 -15 -66 -31 -87 -16
-238 34 -344 15 -31 97 -122 132 -146 39 -26 83 -45 104 -45 13 0 26 -4 29 -9
9 -14 128 -21 191 -10 33 5 76 13 95 16 19 3 44 12 55 19 11 8 27 14 37 14 10
0 18 4 18 8 0 4 16 14 35 21 20 7 69 39 110 72 63 51 99 88 180 183 14 17 31
44 56 94 13 23 26 42 31 42 4 0 8 8 8 18 0 9 7 26 15 36 8 11 15 30 15 42 0
13 5 26 10 29 6 3 10 16 10 28 0 12 7 35 15 51 11 21 15 64 15 172 0 78 -4
145 -9 149 -5 3 -12 19 -16 35 -4 17 -13 43 -21 58 -17 34 -89 112 -104 112
-5 0 -10 3 -10 8 0 10 -59 42 -79 42 -9 0 -25 6 -36 14 -25 17 -179 27 -255
16z m159 -32 c45 -16 117 -90 126 -132 23 -97 -5 -367 -46 -448 -5 -10 -9 -33
-9 -51 0 -18 -7 -42 -15 -53 -8 -10 -15 -28 -15 -39 0 -17 -22 -71 -66 -158
-8 -16 -14 -33 -14 -37 0 -12 -62 -104 -72 -108 -4 -2 -8 -10 -8 -17 0 -21
-128 -145 -149 -145 -5 0 -22 -7 -37 -15 -40 -20 -123 -19 -173 3 -39 18 -60
40 -90 91 -18 32 -43 152 -35 171 3 8 9 53 14 99 5 46 14 89 20 95 5 5 10 24
10 42 0 17 7 48 15 67 8 20 15 50 15 66 0 16 5 33 10 36 6 3 10 16 10 29 0 12
7 31 15 42 8 10 15 29 15 40 0 12 7 27 15 34 8 7 15 23 15 36 0 13 5 24 10 24
6 0 10 8 10 18 0 10 5 23 11 29 14 14 36 52 45 76 3 9 10 17 15 17 5 0 9 6 9
13 0 17 82 104 132 140 20 15 46 27 57 27 11 0 23 5 26 10 9 14 91 13 134 -2z"/>
<path d="M15807 6018 c-7 -4 5 -8 26 -8 23 0 49 -9 67 -22 27 -20 30 -27 30
-80 0 -32 -7 -75 -15 -95 -8 -19 -15 -47 -15 -60 0 -25 -25 -112 -41 -145 -5
-10 -9 -27 -9 -39 0 -11 -6 -35 -14 -52 -8 -18 -17 -48 -19 -67 -6 -41 -25
-116 -37 -145 -5 -11 -11 -31 -13 -45 -3 -14 -10 -38 -15 -55 -23 -64 -42
-138 -42 -161 0 -12 -4 -26 -10 -29 -5 -3 -10 -18 -10 -33 -1 -36 -51 -121
-81 -137 -13 -8 -36 -16 -51 -20 -16 -3 -28 -10 -28 -15 0 -6 182 -10 508 -10
l507 0 12 28 c7 15 15 42 19 60 4 18 11 35 15 38 5 3 9 18 9 33 0 15 7 36 15
47 8 10 15 33 15 50 0 16 5 35 11 41 6 6 9 19 7 29 -3 16 -7 14 -31 -11 -15
-16 -27 -35 -27 -41 0 -15 -108 -120 -149 -145 -17 -10 -38 -19 -46 -19 -8 0
-15 -4 -15 -10 0 -5 -12 -13 -27 -16 -16 -4 -32 -10 -38 -14 -27 -20 -145 -40
-240 -40 l-103 0 -27 32 c-20 24 -25 38 -20 57 3 14 8 40 11 56 3 17 9 39 14
50 5 11 11 41 15 67 3 26 10 50 16 53 5 4 9 21 9 38 1 18 7 43 15 57 8 14 14
35 15 48 0 12 4 30 9 40 6 9 12 33 15 52 9 52 33 63 127 54 46 -4 86 -13 94
-20 7 -8 18 -14 24 -14 5 0 22 -15 36 -34 22 -29 26 -45 27 -105 0 -63 3 -71
19 -71 14 0 19 7 19 26 0 23 19 93 41 149 4 11 10 41 14 67 3 26 10 50 16 53
5 4 9 17 9 31 0 14 7 48 16 75 21 62 10 75 -24 29 -52 -70 -123 -130 -153
-130 -15 0 -30 -4 -33 -9 -8 -12 -155 -21 -182 -11 -28 11 -30 26 -9 66 8 16
15 41 15 56 0 15 5 30 10 33 6 3 10 15 10 27 0 11 6 34 14 51 8 18 17 48 19
67 24 163 79 240 172 240 52 0 196 -28 210 -41 5 -5 17 -9 26 -9 10 0 38 -21
63 -46 40 -40 46 -51 46 -89 0 -147 47 -134 66 18 3 31 10 60 15 63 5 3 9 21
9 40 0 20 5 44 10 55 10 18 5 19 -187 19 -109 1 -326 2 -481 3 -156 1 -289 -1
-295 -5z"/>
<path d="M17020 6018 c0 -5 14 -8 31 -8 18 0 47 -9 65 -21 33 -20 34 -23 34
-85 0 -36 -5 -75 -12 -87 -6 -12 -15 -38 -19 -57 -17 -76 -30 -125 -38 -135
-5 -5 -11 -28 -14 -50 -6 -47 -26 -123 -38 -147 -5 -10 -9 -28 -9 -40 0 -13
-7 -36 -15 -52 -8 -15 -15 -40 -15 -55 -1 -14 -7 -37 -15 -51 -8 -14 -14 -42
-15 -62 0 -20 -4 -40 -10 -43 -5 -3 -10 -18 -10 -33 0 -15 -7 -40 -15 -56 -8
-15 -15 -38 -15 -50 0 -12 -7 -31 -15 -42 -8 -10 -15 -27 -15 -36 0 -10 -4
-18 -10 -18 -5 0 -10 -6 -10 -14 0 -18 -40 -44 -76 -48 -16 -2 -29 -7 -29 -13
0 -6 93 -11 253 -13 158 -1 252 1 252 7 0 6 -17 13 -37 16 -57 10 -59 11 -76
48 -17 35 -14 91 4 103 5 3 9 19 9 36 0 29 23 114 41 150 5 10 9 32 9 50 0 18
7 46 15 62 8 15 15 40 15 55 0 14 8 36 18 48 16 21 26 22 167 26 164 4 219 15
324 66 72 34 161 142 161 194 0 9 5 19 10 22 17 10 11 107 -9 160 -20 52 -77
125 -98 125 -7 0 -13 4 -13 8 0 4 -24 16 -52 25 -45 15 -103 18 -391 20 -185
1 -337 -1 -337 -5z m550 -25 c43 -17 70 -41 97 -87 19 -33 15 -182 -6 -244
-10 -29 -21 -55 -25 -59 -3 -3 -6 -14 -6 -23 0 -21 -79 -104 -120 -125 -30
-16 -188 -23 -210 -10 -15 9 -12 70 5 112 8 19 15 44 15 55 0 21 26 110 41
140 5 10 9 28 9 40 0 13 7 36 15 52 8 15 15 42 15 60 1 35 26 70 67 91 36 19
48 19 103 -2z"/>
<path d="M19835 6020 l-500 -5 -5 -50 c-3 -27 -9 -56 -13 -63 -5 -6 -12 -33
-17 -60 -5 -26 -12 -59 -16 -74 -4 -19 -2 -28 6 -28 13 0 49 40 50 56 0 18
114 128 150 145 63 30 84 37 147 49 50 10 66 10 78 0 19 -16 19 -51 0 -76 -8
-10 -15 -33 -15 -51 0 -17 -4 -34 -9 -38 -6 -3 -13 -26 -17 -50 -3 -25 -10
-45 -14 -45 -5 0 -10 -21 -13 -47 -2 -27 -9 -61 -15 -78 -6 -16 -18 -57 -27
-90 -9 -33 -20 -68 -26 -77 -5 -10 -9 -28 -9 -40 0 -13 -7 -36 -15 -52 -8 -15
-15 -46 -15 -67 0 -21 -4 -40 -9 -44 -6 -3 -13 -26 -17 -50 -3 -25 -10 -48
-15 -51 -5 -3 -9 -18 -9 -33 0 -15 -7 -36 -15 -47 -8 -10 -15 -33 -15 -50 0
-65 -70 -174 -110 -174 -10 0 -33 -7 -51 -15 -31 -13 -9 -14 238 -15 149 0
278 -3 287 -6 10 -4 16 -1 16 9 0 11 -16 17 -58 22 -50 6 -60 10 -75 37 -19
32 -23 93 -7 103 6 3 10 28 10 54 0 26 7 56 15 67 8 10 15 33 15 51 0 17 4 34
9 37 5 4 12 24 16 46 4 22 11 42 16 46 5 3 9 20 9 37 0 18 6 52 14 77 8 25 22
72 31 105 9 33 20 68 26 77 5 10 9 28 9 40 1 13 7 34 15 48 8 14 14 44 15 67
0 23 4 44 9 47 5 4 12 24 16 46 4 22 11 42 16 46 5 3 9 18 9 34 0 38 30 97 52
103 36 10 154 -28 185 -58 7 -7 22 -32 33 -56 12 -24 26 -52 31 -61 5 -10 9
-38 9 -64 0 -38 3 -45 18 -42 13 2 18 15 20 48 1 25 7 54 12 65 5 11 12 46 15
77 4 32 11 60 16 63 11 7 12 66 2 63 -5 -2 -233 -5 -508 -8z"/>
<path d="M14480 6011 c57 -9 87 -28 93 -61 7 -33 -8 -139 -29 -210 -9 -30 -19
-72 -24 -92 -4 -21 -12 -43 -17 -50 -6 -7 -13 -29 -16 -48 -9 -60 -27 -134
-37 -152 -6 -10 -10 -29 -10 -44 0 -14 -5 -35 -12 -47 -6 -12 -15 -38 -20 -57
-4 -19 -13 -61 -20 -92 -8 -31 -17 -60 -21 -64 -4 -4 -7 -21 -7 -39 0 -17 -7
-40 -15 -51 -8 -10 -15 -29 -15 -41 0 -23 -31 -83 -42 -83 -5 0 -8 -6 -8 -13
0 -14 -32 -34 -64 -39 -11 -2 -21 -9 -24 -15 -9 -29 715 -10 744 20 4 4 17 7
28 7 22 0 111 27 136 41 8 5 31 16 50 26 86 42 211 153 245 217 11 20 22 36
26 36 4 0 9 8 13 18 3 9 14 31 25 48 10 17 22 46 25 65 4 19 11 43 16 54 20
48 33 190 21 243 -6 29 -11 69 -11 87 0 19 -4 35 -10 35 -5 0 -10 7 -10 16 0
53 -114 201 -168 218 -12 4 -22 12 -22 17 0 5 -8 9 -18 9 -10 0 -22 4 -27 9
-6 4 -33 16 -62 25 -44 14 -102 16 -405 15 -194 -1 -333 -5 -308 -8z m585 -20
c86 -31 99 -38 128 -67 31 -31 67 -98 67 -125 0 -9 7 -33 15 -52 17 -42 20
-156 5 -207 -6 -19 -15 -62 -20 -95 -17 -114 -29 -168 -40 -179 -5 -5 -10 -17
-10 -27 0 -19 -59 -133 -71 -137 -5 -2 -9 -12 -9 -21 0 -22 -143 -171 -163
-171 -8 0 -20 -7 -27 -15 -7 -8 -21 -15 -30 -15 -10 0 -20 -3 -22 -8 -7 -16
-118 -42 -182 -42 -53 0 -74 5 -97 21 -27 19 -29 25 -29 83 0 39 5 69 15 82 8
10 15 34 15 52 0 34 24 122 41 154 5 10 9 29 9 44 0 14 5 35 12 47 6 12 15 38
20 57 4 19 13 61 20 92 8 31 17 60 21 64 4 4 7 21 7 38 1 17 7 42 15 56 8 14
14 39 15 57 0 17 5 35 10 38 6 3 10 16 10 28 0 12 7 35 15 51 8 15 15 44 15
63 0 43 31 105 67 132 36 26 109 27 178 2z"/>
<path d="M4180 4402 c-39 -6 -78 -40 -82 -70 -2 -22 -8 -27 -33 -29 -16 -2
-73 -8 -126 -14 -86 -10 -100 -9 -123 6 -14 10 -26 23 -26 30 0 8 -8 27 -17
44 l-18 31 -214 0 c-180 0 -220 -3 -253 -17 -27 -12 -38 -23 -38 -38 0 -12
-10 -34 -23 -48 -21 -25 -29 -27 -98 -27 -41 0 -101 7 -132 15 -75 19 -110 19
-175 -4 -76 -26 -83 -36 -84 -117 -2 -93 6 -114 42 -114 16 0 32 5 35 10 9 14
58 13 73 -2 7 -7 12 -36 12 -66 l0 -55 78 8 c108 10 151 10 274 1 l107 -9 7
27 c11 43 94 49 94 5 0 -20 15 -26 25 -9 9 15 43 12 52 -5 7 -12 51 -15 276
-15 147 -1 272 2 277 5 31 19 70 22 97 8 19 -10 62 -15 135 -16 88 -1 110 2
126 16 23 21 157 24 205 4 24 -11 103 -14 334 -13 320 1 345 5 310 44 -20 22
-23 61 -4 63 6 1 39 2 72 4 33 1 103 10 155 19 114 20 149 16 178 -24 26 -34
28 -53 7 -70 -24 -20 -19 -41 8 -35 12 3 108 1 214 -4 105 -5 201 -7 213 -4
19 5 20 7 5 23 -10 11 -15 31 -13 52 l3 33 95 6 c52 3 127 11 165 18 60 10 81
9 143 -5 89 -21 122 -10 122 40 1 40 26 69 70 82 32 9 35 13 33 45 -5 73 0 79
72 79 l65 0 0 43 0 44 -138 7 c-230 10 -322 -9 -322 -70 0 -25 -7 -29 -81 -53
-53 -16 -82 -14 -103 11 -15 17 -16 25 -7 40 6 10 11 29 11 42 l0 24 -327 -4
c-476 -7 -572 -7 -1048 -4 -236 2 -450 -1 -474 -5 -26 -4 -58 -3 -80 3 -42 13
-115 19 -151 14z"/>
<path d="M2419 4147 c-9 -7 -19 -29 -23 -50 -4 -21 -14 -41 -22 -44 -24 -9
-16 -51 17 -82 25 -24 43 -31 95 -36 35 -4 79 -4 99 -1 34 7 35 8 35 56 l0 50
-50 0 c-54 0 -49 -5 -65 73 -2 13 -16 29 -30 35 -32 15 -36 15 -56 -1z"/>
<path d="M2400 3775 c-7 -8 -19 -15 -26 -15 -23 0 -16 -20 16 -47 31 -26 39
-60 18 -81 -17 -17 9 -62 37 -62 29 0 55 -30 55 -64 0 -41 17 -66 46 -66 26 0
63 -34 64 -57 0 -7 8 -22 17 -33 17 -19 29 -20 456 -20 l439 0 42 -31 c33 -23
49 -29 70 -23 14 3 29 10 32 15 11 18 77 39 124 39 56 0 74 -16 64 -55 -9 -38
31 -75 82 -75 28 0 34 3 26 13 -5 6 -13 26 -16 43 -10 47 9 56 127 62 123 5
137 11 137 57 0 63 3 65 99 65 101 0 138 13 147 53 5 25 9 27 54 27 45 0 106
-22 122 -45 12 -17 139 -12 178 7 51 25 117 89 124 121 11 47 -1 66 -51 80
-43 13 -47 17 -60 61 l-14 46 -412 -5 c-772 -10 -942 -10 -1463 -2 -459 6
-523 5 -534 -8z"/>
<path d="M9403 3644 l-23 -5 0 -285 0 -284 25 0 24 0 3 128 3 127 62 3 c62 3
63 3 108 -42 30 -30 45 -54 45 -71 0 -14 8 -53 18 -85 14 -50 21 -60 39 -60
19 0 21 4 17 38 -3 20 -12 54 -20 75 -8 20 -14 45 -14 55 0 9 -14 35 -30 56
-17 22 -30 43 -30 48 0 5 15 24 33 43 17 19 38 41 45 49 18 22 16 120 -3 136
-8 7 -15 19 -15 26 0 8 -5 14 -12 14 -6 0 -19 7 -29 16 -13 12 -44 17 -121 19
-57 2 -113 1 -125 -1z m182 -40 c76 -31 101 -85 75 -160 -14 -41 -65 -71 -131
-79 -93 -11 -99 -5 -99 123 0 71 4 112 12 120 17 17 99 15 143 -4z"/>
<path d="M11915 3641 c-85 -13 -125 -39 -189 -123 -23 -31 -29 -50 -33 -116
-3 -44 -2 -105 1 -136 7 -50 13 -63 63 -116 30 -33 63 -60 73 -60 11 0 22 -4
25 -10 8 -13 241 -13 266 0 17 10 19 22 19 140 l0 130 -85 0 c-50 0 -85 -4
-85 -10 0 -5 24 -10 53 -10 29 0 58 -5 65 -12 17 -17 16 -169 -1 -192 -20 -28
-169 -26 -225 3 -79 40 -122 120 -122 225 0 106 28 165 104 213 67 43 131 57
197 43 58 -12 89 -9 89 9 0 5 -8 12 -17 15 -35 10 -149 14 -198 7z"/>
<path d="M13978 3643 l-48 -4 0 -285 c0 -277 0 -284 20 -284 19 0 20 7 20 110
0 109 0 111 26 120 14 6 46 10 72 10 81 0 152 34 178 85 20 39 18 146 -3 184
-10 16 -34 37 -53 45 -39 17 -139 26 -212 19z m149 -35 c79 -34 116 -123 76
-186 -39 -60 -78 -82 -149 -82 -81 0 -84 5 -84 135 0 106 1 115 22 129 27 19
96 21 135 4z"/>
<path d="M5240 3356 c0 -279 0 -286 20 -286 19 0 20 7 20 114 0 129 -2 126 83
126 131 1 207 66 207 179 0 54 -3 62 -39 102 l-39 44 -126 4 -126 3 0 -286z
m197 252 c15 -6 43 -27 61 -47 48 -51 42 -119 -15 -178 -6 -7 -14 -13 -18 -13
-4 0 -13 -7 -21 -15 -10 -10 -35 -15 -74 -15 -93 0 -90 -5 -90 134 0 82 4 126
12 134 15 15 109 16 145 0z"/>
<path d="M5720 3355 c0 -278 0 -285 20 -285 19 0 20 7 20 130 l0 130 70 0 c62
0 74 -3 100 -27 17 -14 30 -32 30 -40 0 -7 4 -13 10 -13 5 0 12 -23 16 -50 4
-28 11 -53 15 -56 5 -3 9 -21 9 -40 0 -32 2 -34 32 -34 25 0 29 3 20 12 -7 7
-12 24 -12 39 0 15 -7 40 -15 55 -8 16 -15 41 -15 57 0 15 -4 27 -10 27 -5 0
-10 7 -10 15 0 8 -9 24 -20 35 -19 19 -19 19 5 48 13 16 22 31 20 34 -3 3 6
17 20 32 20 21 25 38 25 77 0 27 -6 57 -12 65 -54 66 -76 74 -225 74 l-93 0 0
-285z m245 220 c38 -38 45 -50 45 -84 0 -60 -55 -113 -133 -130 -46 -10 -65
-10 -88 -1 l-29 12 0 112 c0 74 4 116 12 124 7 7 41 12 80 12 68 0 69 0 113
-45z"/>
<path d="M6330 3634 c-85 -31 -138 -93 -163 -189 -19 -76 -8 -213 19 -236 8
-6 14 -17 14 -24 0 -18 64 -81 101 -99 35 -17 199 -23 199 -7 0 5 11 12 24 15
30 7 105 82 112 112 3 13 10 24 15 24 5 0 9 56 9 125 0 115 -2 129 -24 163
-61 96 -93 114 -206 118 -47 2 -92 1 -100 -2z m135 -24 c3 -5 14 -10 23 -10
27 0 112 -96 112 -128 0 -16 5 -33 11 -39 12 -12 7 -128 -9 -186 -11 -42 -56
-105 -81 -114 -9 -4 -19 -11 -23 -17 -9 -14 -166 -15 -176 -1 -4 6 -16 15 -26
21 -11 6 -24 19 -30 30 -6 10 -14 21 -17 24 -3 3 -13 20 -22 39 -13 25 -17 60
-17 135 1 100 1 102 38 156 44 66 98 98 164 99 26 1 50 -3 53 -9z"/>
<path d="M6757 3634 c-7 -7 -1 -46 13 -79 23 -58 40 -113 40 -135 0 -14 7 -34
15 -44 8 -11 15 -30 15 -42 0 -13 5 -26 10 -29 6 -3 10 -16 10 -28 0 -12 7
-31 15 -41 8 -11 15 -32 15 -47 0 -15 7 -40 15 -55 8 -16 15 -37 15 -47 0 -14
7 -18 31 -15 18 2 36 10 40 18 25 47 39 86 39 105 0 11 7 30 15 41 8 10 15 29
15 42 0 12 4 30 9 40 24 43 41 86 41 102 0 9 7 25 15 36 8 10 15 31 15 46 0
14 8 41 17 60 32 64 34 70 30 74 -3 3 -16 2 -31 -2 -18 -4 -26 -13 -26 -28 0
-12 -7 -31 -15 -42 -8 -10 -15 -27 -15 -37 0 -9 -4 -25 -9 -35 -6 -9 -13 -34
-16 -54 -3 -21 -10 -38 -15 -38 -6 0 -10 -12 -10 -26 0 -14 -6 -38 -14 -52
-16 -33 -33 -84 -42 -135 -3 -20 -10 -40 -15 -43 -16 -9 -49 16 -49 39 0 12
-7 35 -15 51 -8 15 -15 40 -15 55 0 14 -7 35 -15 45 -8 11 -15 32 -15 47 0 15
-4 31 -10 34 -5 3 -10 18 -10 33 0 15 -7 40 -15 56 -8 15 -15 35 -15 44 0 8
-8 33 -17 54 -16 36 -31 46 -46 32z"/>
<path d="M7290 3355 l0 -285 161 0 c147 0 160 1 157 18 -3 15 -19 18 -128 22
l-125 5 -3 109 c-2 67 1 113 8 121 8 10 38 13 106 12 53 -1 100 1 105 4 25 15
-26 28 -117 31 l-99 3 -3 94 c-2 56 1 98 8 105 6 6 55 9 120 8 103 -1 110 0
110 18 0 19 -8 20 -150 20 l-150 0 0 -285z"/>
<path d="M7783 3632 l-43 -3 0 -280 0 -279 150 0 c127 0 150 2 150 15 0 12
-18 15 -104 15 -58 0 -116 4 -130 10 -26 9 -26 11 -26 114 0 137 -1 136 136
136 68 0 103 4 99 10 -3 6 -49 10 -101 10 -134 0 -134 0 -134 115 0 115 0 115
132 115 88 0 138 11 106 22 -15 5 -173 6 -235 0z"/>
<path d="M8178 3634 c-5 -4 -8 -133 -8 -286 l0 -278 129 0 c76 0 132 4 136 10
3 6 15 10 25 10 10 0 25 7 34 15 8 8 18 15 23 15 23 1 83 76 83 103 0 8 7 20
15 27 11 10 15 36 15 112 0 93 -2 103 -32 156 -30 55 -46 71 -98 101 -27 16
-309 29 -322 15z m227 -24 c3 -5 17 -10 29 -10 30 0 117 -84 135 -130 23 -57
25 -134 5 -187 -22 -62 -90 -153 -112 -153 -10 0 -23 -5 -29 -11 -17 -17 -179
-25 -198 -9 -23 19 -22 471 1 494 18 18 158 23 169 6z"/>
<path d="M8900 3633 c-55 -18 -113 -67 -126 -105 -3 -10 -10 -18 -15 -18 -5 0
-9 -8 -9 -17 0 -10 -7 -38 -16 -63 -17 -48 -13 -155 6 -174 6 -6 10 -20 10
-32 0 -12 7 -27 15 -34 8 -7 15 -17 15 -22 0 -14 31 -43 77 -72 38 -23 53 -26
133 -26 49 0 90 4 90 9 0 5 11 12 24 15 33 8 79 58 110 119 23 46 26 64 26
148 0 102 -9 129 -65 203 -42 55 -93 76 -185 75 -41 0 -82 -3 -90 -6z m135
-23 c3 -5 14 -10 23 -10 38 0 122 -106 122 -153 0 -9 5 -19 10 -22 24 -15 -6
-215 -32 -215 -4 0 -8 -6 -8 -13 0 -17 -48 -67 -65 -67 -7 0 -15 -4 -17 -10
-4 -14 -89 -24 -132 -16 -39 7 -104 63 -129 111 -40 78 -40 197 0 284 19 41
81 101 105 101 9 0 20 5 23 10 3 6 26 10 50 10 24 0 47 -4 50 -10z"/>
<path d="M10057 3633 c-4 -3 -7 -132 -7 -285 0 -271 0 -278 20 -278 20 0 20 7
20 285 0 231 -3 285 -13 285 -8 0 -17 -3 -20 -7z"/>
<path d="M10249 3636 c-2 -2 -2 -91 1 -198 3 -106 3 -232 0 -281 l-5 -87 28 0
27 0 0 239 c0 205 2 240 15 245 11 4 22 -8 38 -42 12 -26 28 -53 35 -60 6 -7
12 -20 12 -28 0 -8 4 -14 10 -14 5 0 12 -11 16 -25 3 -14 10 -25 14 -25 4 0
10 -8 14 -17 6 -19 27 -55 37 -63 3 -3 21 -32 39 -65 18 -33 43 -74 56 -92 13
-17 24 -36 24 -42 0 -6 14 -11 30 -11 l30 0 0 286 c0 257 -2 285 -16 282 -14
-3 -16 -27 -15 -214 2 -225 -5 -278 -36 -253 -9 8 -22 28 -30 44 -7 17 -22 44
-33 60 -10 17 -28 48 -40 70 -12 22 -37 61 -56 88 -19 26 -34 51 -34 56 0 11
-81 134 -95 143 -11 8 -59 11 -66 4z"/>
<path d="M10770 3624 c0 -7 24 -9 74 -6 65 4 76 2 95 -17 20 -20 21 -29 21
-276 0 -220 2 -255 15 -255 13 0 15 35 15 259 0 302 -6 285 104 287 39 1 71 4
71 8 0 3 -89 7 -198 9 -138 1 -197 -1 -197 -9z"/>
<path d="M11293 3633 c-10 -3 -13 -70 -13 -284 l0 -279 150 0 c127 0 150 2
150 15 0 12 -19 15 -108 15 -144 0 -146 2 -151 119 -5 135 1 141 129 141 60 0
100 4 100 10 0 6 -40 10 -99 10 -124 0 -131 6 -131 121 0 105 6 109 143 109
88 0 107 3 107 15 0 13 -21 15 -132 14 -73 0 -139 -3 -145 -6z"/>
<path d="M12303 3634 c-10 -4 -13 -71 -13 -285 l0 -279 30 0 30 0 0 130 0 130
69 0 c64 0 71 -2 100 -32 17 -17 31 -41 31 -52 1 -12 7 -32 15 -46 8 -14 15
-41 15 -60 1 -40 20 -70 44 -70 20 0 20 26 1 60 -8 14 -14 44 -15 67 0 23 -4
45 -10 48 -5 3 -10 13 -10 21 0 8 -15 29 -32 45 l-33 30 41 37 c51 47 69 105
51 170 -19 72 -49 87 -187 89 -63 1 -121 0 -127 -3z m211 -28 c46 -24 66 -59
66 -118 -1 -46 -5 -57 -33 -84 -18 -18 -48 -35 -67 -38 -93 -18 -105 -18 -127
4 -21 18 -23 30 -23 110 0 49 5 101 12 115 10 23 16 25 78 25 37 0 79 -6 94
-14z"/>
<path d="M12924 3623 c-4 -10 -12 -32 -20 -50 -8 -17 -14 -38 -14 -46 0 -9 -4
-19 -10 -22 -5 -3 -10 -16 -10 -29 0 -12 -7 -31 -15 -42 -8 -10 -15 -28 -15
-39 -1 -22 -34 -122 -44 -132 -3 -3 -6 -16 -6 -28 0 -12 -7 -30 -15 -41 -8
-10 -15 -29 -15 -41 0 -12 -4 -24 -9 -27 -5 -3 -11 -17 -14 -31 -4 -24 -2 -26
27 -23 28 3 32 7 37 43 3 22 10 50 17 62 7 12 12 31 12 43 0 13 9 24 26 30 29
12 194 13 210 2 21 -15 44 -57 44 -82 0 -14 4 -30 9 -36 5 -5 11 -20 13 -34 2
-20 9 -26 36 -28 37 -4 37 -4 17 34 -8 16 -15 37 -15 47 0 9 -4 25 -9 35 -20
40 -41 94 -41 106 0 8 -7 27 -15 42 -8 16 -15 39 -15 52 0 12 -4 30 -9 40 -21
42 -41 94 -41 107 0 9 -4 23 -10 33 -5 9 -14 29 -20 45 -8 23 -15 27 -45 27
-25 0 -37 -5 -41 -17z m58 -60 c10 -9 18 -30 18 -47 0 -17 7 -40 15 -50 8 -11
15 -32 15 -46 0 -15 7 -41 16 -58 28 -58 19 -67 -75 -70 -82 -3 -118 8 -104
31 3 6 10 27 14 46 8 39 26 95 40 123 5 10 9 25 9 34 0 18 18 54 27 54 4 0 15
-7 25 -17z"/>
<path d="M13327 3634 c-4 -4 -7 -133 -7 -286 l0 -278 150 0 c127 0 150 2 150
15 0 12 -18 15 -104 15 -58 0 -116 4 -130 10 l-26 9 -2 257 c-3 244 -7 281
-31 258z"/>
<path d="M14467 3633 c-4 -3 -7 -15 -7 -25 0 -18 -2 -25 -33 -86 -9 -19 -17
-42 -17 -52 0 -10 -7 -31 -15 -46 -8 -16 -15 -37 -15 -46 0 -9 -8 -31 -17 -50
-31 -63 -33 -68 -33 -96 0 -16 -3 -32 -7 -36 -10 -10 -43 -98 -43 -114 0 -9
10 -12 28 -10 24 3 28 8 33 46 3 23 11 48 17 54 7 7 12 25 12 40 0 39 29 48
145 48 92 0 94 -1 114 -29 12 -16 21 -43 21 -59 0 -17 4 -33 9 -37 5 -3 12
-19 16 -35 5 -25 11 -30 36 -30 28 0 39 13 20 24 -5 4 -12 24 -16 46 -4 22
-11 42 -16 46 -5 3 -9 15 -9 27 0 12 -7 31 -15 41 -8 11 -15 29 -15 41 0 12
-3 25 -6 28 -10 10 -43 110 -44 132 0 11 -7 29 -15 39 -8 11 -15 28 -15 38 0
10 -4 26 -9 36 -5 9 -14 29 -20 45 -9 22 -17 27 -44 27 -19 0 -37 -3 -40 -7z
m57 -69 c9 -8 16 -27 16 -42 1 -15 7 -38 15 -52 8 -14 14 -34 15 -46 0 -11 7
-35 16 -52 8 -18 14 -42 12 -54 -3 -22 -8 -23 -86 -26 -92 -3 -119 7 -102 38
6 10 10 27 10 37 0 10 7 31 15 47 8 15 15 36 15 46 0 10 6 33 14 51 7 19 16
42 19 52 8 21 21 22 41 1z"/>
<path d="M14873 3634 c-10 -4 -13 -71 -13 -285 l0 -279 23 0 c22 0 22 2 19
102 -2 57 1 115 7 131 10 26 13 27 80 27 67 0 71 -1 106 -37 27 -28 35 -44 35
-73 0 -20 5 -41 10 -46 6 -6 14 -30 18 -55 6 -38 11 -44 35 -47 31 -4 32 -3
12 34 -8 16 -15 48 -15 71 0 23 -4 44 -9 47 -5 3 -12 18 -16 33 -3 15 -17 37
-31 50 -33 30 -31 42 18 83 41 36 42 38 42 102 2 119 -26 140 -194 144 -63 2
-121 1 -127 -2z m215 -29 c47 -24 76 -77 69 -128 -3 -23 -11 -43 -16 -45 -6
-2 -11 -9 -11 -15 -1 -30 -126 -75 -175 -63 -47 12 -55 31 -55 129 0 124 9
137 94 137 37 0 76 -6 94 -15z"/>
<path d="M15486 3598 c-10 -24 -22 -52 -27 -63 -4 -11 -11 -35 -14 -52 -4 -18
-10 -33 -15 -33 -4 0 -10 -17 -13 -37 -6 -43 -54 -183 -68 -197 -5 -6 -9 -20
-9 -32 0 -12 -7 -38 -15 -57 -20 -49 -19 -57 8 -57 24 0 41 24 50 70 11 52 35
104 53 111 28 11 169 10 198 -1 14 -5 26 -16 26 -23 0 -13 19 -59 41 -99 5
-10 9 -27 9 -38 0 -16 7 -20 34 -20 35 0 35 0 20 28 -7 15 -14 35 -14 44 0 9
-4 20 -10 23 -5 3 -10 13 -10 22 0 8 -6 29 -14 46 -7 18 -21 59 -31 92 -21 71
-27 88 -49 138 -9 21 -16 46 -16 55 0 10 -4 22 -10 28 -5 5 -13 27 -18 49 -7
38 -10 40 -48 43 -39 3 -41 2 -58 -40z m70 -50 c10 -18 21 -46 25 -63 8 -34
28 -90 41 -121 6 -12 8 -32 6 -45 -3 -23 -6 -24 -93 -24 -87 0 -90 1 -93 24
-2 13 1 28 7 34 6 6 11 19 11 28 0 9 7 30 15 45 8 16 15 39 15 50 0 32 32 104
46 104 2 0 11 -15 20 -32z"/>
<path d="M16080 3355 l1 -285 154 0 c148 0 155 1 155 20 0 18 -8 20 -127 22
l-128 3 -3 263 -2 262 -25 0 -25 0 0 -285z"/>
<path d="M16647 3633 c-4 -3 -7 -15 -7 -25 0 -18 -2 -25 -33 -86 -9 -19 -17
-41 -17 -50 0 -14 -12 -54 -40 -127 -22 -59 -33 -93 -37 -115 -3 -14 -9 -29
-13 -35 -5 -5 -11 -27 -15 -48 -4 -20 -11 -40 -16 -43 -5 -3 -9 -12 -9 -20 0
-11 8 -14 27 -12 22 2 29 10 34 36 4 19 12 39 18 45 6 6 11 28 11 49 0 50 21
58 145 58 92 0 94 -1 114 -29 12 -16 21 -40 21 -53 0 -12 7 -32 15 -42 8 -11
15 -30 15 -43 0 -19 5 -23 30 -23 34 0 36 6 15 46 -8 16 -15 37 -15 46 0 9 -4
20 -10 23 -5 3 -10 15 -10 25 0 10 -6 31 -14 47 -8 15 -22 55 -31 88 -9 33
-20 68 -26 77 -5 10 -9 26 -9 35 0 10 -7 27 -15 37 -8 11 -15 30 -15 43 0 13
-4 23 -10 23 -5 0 -10 11 -10 24 0 45 -10 56 -49 56 -21 0 -41 -3 -44 -7z m57
-69 c9 -8 16 -28 16 -43 0 -15 7 -36 15 -47 8 -10 15 -28 15 -40 0 -11 7 -35
16 -52 8 -18 14 -44 12 -59 -3 -28 -4 -28 -86 -31 -104 -4 -115 3 -96 61 8 23
19 50 24 59 6 10 10 26 10 35 0 15 9 45 35 121 6 16 20 15 39 -4z"/>
<path d="M17343 3624 c-40 -20 -113 -97 -113 -121 0 -10 -7 -27 -15 -37 -21
-28 -20 -203 0 -230 8 -11 15 -27 15 -36 0 -22 46 -72 97 -104 37 -23 53 -26
125 -26 88 1 117 11 175 60 68 59 111 220 79 300 -9 22 -16 52 -16 66 0 30
-67 106 -115 128 -45 22 -188 21 -232 0z m191 -28 c52 -28 96 -71 96 -95 0
-10 6 -23 13 -30 17 -17 17 -223 -1 -229 -6 -2 -12 -12 -12 -22 0 -23 -56 -90
-75 -90 -7 0 -15 -6 -17 -12 -6 -17 -156 -18 -166 -2 -4 6 -16 14 -28 18 -35
11 -93 127 -101 205 -11 96 76 259 139 261 9 0 20 5 23 10 11 18 83 10 129
-14z"/>
<path d="M17847 3633 c-4 -3 -7 -132 -7 -285 l0 -278 30 0 30 0 0 130 c0 155
-2 153 128 149 60 -2 87 0 90 9 3 9 -22 12 -95 12 -64 0 -103 4 -111 12 -16
16 -16 200 0 216 8 8 49 12 120 12 89 0 108 3 108 15 0 13 -23 15 -143 15 -79
0 -147 -3 -150 -7z"/>
<path d="M18290 3638 c0 -2 -1 -130 -3 -286 l-2 -282 23 0 22 0 0 285 c0 278
0 285 -20 285 -11 0 -20 -1 -20 -2z"/>
<path d="M18665 3633 c-67 -15 -144 -75 -172 -135 -15 -33 -33 -113 -33 -148
0 -40 19 -117 38 -157 18 -36 93 -103 116 -103 8 0 18 -4 21 -10 6 -9 225 -15
225 -6 0 2 2 10 5 18 4 10 -17 13 -102 13 -76 0 -108 4 -110 13 -3 6 -12 12
-22 12 -21 0 -78 54 -87 83 -4 12 -12 25 -18 29 -16 10 -15 203 2 219 6 7 12
21 12 30 0 22 85 98 119 106 14 3 31 10 38 15 13 10 96 6 146 -7 21 -6 27 -4
27 8 0 8 -7 18 -16 21 -17 7 -158 6 -189 -1z"/>
<path d="M19010 3356 c0 -280 0 -286 20 -286 20 0 20 5 18 282 -3 260 -4 283
-20 286 -17 3 -18 -16 -18 -282z"/>
<path d="M19243 3633 l-23 -4 0 -280 c0 -272 0 -279 20 -279 19 0 20 7 20 239
0 160 4 242 11 246 14 9 59 -34 59 -56 0 -10 4 -21 10 -24 5 -3 17 -23 27 -43
9 -20 27 -50 39 -67 12 -16 30 -46 41 -65 16 -30 50 -85 101 -165 6 -11 16
-30 22 -42 6 -15 18 -23 35 -23 l25 0 0 286 c0 224 -3 285 -12 281 -10 -3 -13
-59 -13 -235 0 -188 -3 -233 -14 -237 -14 -6 -41 11 -41 26 0 5 -11 27 -25 49
-14 22 -25 44 -25 50 0 11 -62 103 -72 108 -5 2 -8 10 -8 18 0 11 -52 96 -70
114 -3 3 -15 23 -27 45 -25 46 -49 63 -80 58z"/>
<path d="M19958 3629 c-10 -5 -18 -20 -18 -32 -1 -24 -33 -123 -44 -134 -3 -3
-6 -16 -6 -28 0 -12 -7 -30 -15 -41 -8 -10 -15 -29 -15 -41 0 -12 -4 -24 -9
-27 -5 -3 -12 -26 -15 -51 -4 -24 -11 -47 -17 -50 -5 -4 -9 -16 -9 -29 0 -12
-7 -31 -15 -42 -8 -10 -15 -28 -15 -40 0 -11 -5 -25 -12 -32 -9 -9 -5 -12 20
-12 29 0 32 3 32 29 0 17 5 33 10 36 6 3 10 13 10 21 0 8 9 35 20 60 l20 44
106 0 c121 0 144 -8 144 -50 0 -17 4 -38 9 -48 5 -9 16 -34 25 -54 11 -26 22
-38 36 -38 24 0 26 18 5 46 -8 10 -15 36 -15 57 0 20 -4 37 -10 37 -5 0 -12
16 -16 35 -3 19 -10 38 -15 41 -5 3 -9 15 -9 27 0 12 -7 31 -15 41 -8 11 -15
30 -15 42 0 12 -7 35 -15 50 -8 16 -15 39 -15 51 0 12 -4 25 -10 28 -5 3 -10
13 -10 22 0 9 -8 34 -17 54 -19 41 -48 50 -85 28z m58 -66 c3 -16 12 -42 20
-60 8 -17 14 -41 14 -52 0 -12 4 -29 9 -39 60 -122 60 -122 -64 -122 l-95 0 0
44 c0 25 5 48 10 51 6 3 10 16 10 29 0 12 7 31 15 42 8 10 15 33 15 50 0 31
32 84 51 84 5 0 11 -12 15 -27z"/>
<path d="M2934 3219 c-58 -26 -67 -41 -59 -89 l7 -40 72 0 c40 0 76 -4 81 -9
6 -6 30 -11 55 -13 l45 -3 3 -52 3 -53 125 0 c74 0 124 4 124 10 0 18 49 22
81 6 18 -9 49 -16 70 -16 33 0 38 3 44 30 4 16 4 34 0 40 -14 22 17 40 67 40
59 0 85 19 68 49 -5 11 -10 28 -10 39 0 17 -10 20 -91 27 -75 5 -94 4 -108 -9
-14 -13 -43 -16 -148 -16 -138 0 -139 0 -265 66 -36 19 -115 16 -164 -7z"/>
</g>
</svg>
